# xmcd
#
# Track frame offsets:
#	150
#	14809
#	35146
#	47638
#	63950
#	80901
#	98783
#	116269
#	134843
#	151610
#	173191
#
# Disc length: 2593 seconds
#
# Revision: 1
# Processed by: cddbd v1.5.2PL0 Copyright (c) Steve Scherf et al.
# Submitted via: audiograbber 1.83.01
#
DISCID=940a1f0b
DTITLE=Billy Currington - Icon
DYEAR=2011
DGENRE=Country
TTITLE0=I Got a Feelin'
TTITLE1=Must Be Doin' Somethin' Right
TTITLE2=Why, Why, Why
TTITLE3=Good Directions
TTITLE4=That's How Country Boys Roll
TTITLE5=Don't
TTITLE6=People Are Crazy
TTITLE7=Tangled Up
TTITLE8=Walk a Little Straighter
TTITLE9=Swimmin' In Sunshine
TTITLE10=She's Got a Way With Me
EXTD=
EXTT0=
EXTT1=
EXTT2=
EXTT3=
EXTT4=
EXTT5=
EXTT6=
EXTT7=
EXTT8=
EXTT9=
EXTT10=
PLAYORDER=
